<svg fill="none" height="256" viewBox="0 0 256 256" width="256" xmlns="http://www.w3.org/2000/svg" xmlns:xlink="http://www.w3.org/1999/xlink"><linearGradient id="a" gradientUnits="userSpaceOnUse" x1="169.969" x2="54.0834" y1="53.7813" y2="253"><stop offset=".0001" stop-color="#a4d756"/><stop offset="1" stop-color="#00b6e7"/></linearGradient><g fill="url(#a)"><path d="m26.1464 199.614c10.562 14.691 24.1101 26.984 39.7559 36.072 15.6459 9.088 33.036 14.766 51.0297 16.662-9.257-13.931-22.714-26.748-39.5137-36.506s-34.5908-15.088-51.2719-16.228z"/><path d="m99.9925 176.988c-32.3664-18.803-67.3978-23.595-92.46389-15.13 2.41982 7.998 5.61119 15.741 9.52899 23.121 21.7782-.504 45.5562 5.411 67.6818 18.262s39.0476 30.587 49.4036 49.759c8.356-.257 16.668-1.321 24.82-3.178-5.067-25.964-26.613-54.026-58.9705-72.834z"/><path d="m254.229 100.663c-4.116-16.738-11.561-32.4753-21.893-46.2721-10.332-13.7967-23.339-25.37-38.243-34.0288-14.904-8.6587-31.4-14.22535-48.503-16.36749s-34.462-.81586-51.0411 3.89965c27.6971 3.38964 58.4411 13.78714 88.5911 31.30294 30.151 17.5157 54.433 39.0693 71.089 61.4658z"/><path d="m213.93 162.049c-14.177-23.544-38.463-46.09-68.38-63.4697-29.918-17.3801-61.5258-27.3074-88.9773-27.9641-24.1508-.572-42.2767 6.4487-49.71686 19.2571-.04237.0763-.10169.1483-.1483.2246-.66944 2.4023-1.24567 4.8089-1.77106 7.224 10.38912-4.1014 22.42642-6.3851 35.81112-6.6393 29.7648-.5593 63.0764 8.9612 93.8154 26.8204 30.739 17.859 55.53 42.09 69.783 68.215 6.39 11.771 10.377 23.359 11.957 34.43 1.839-1.644 3.644-3.343 5.394-5.11.046-.08.076-.165.123-.25 7.44-12.821 4.563-32.04-7.89-52.738z"/><path d="m122.788 137.754c-45.8144-26.617-96.4422-30.786-120.788-12.211.04782 5.814.49231 11.618 1.3304 17.372 7.1617-2.171 14.5428-3.538 22.0069-4.076 27.2058-2.047 57.1995 5.533 84.4177 21.354 27.219 15.821 48.675 38.133 60.377 62.763 3.235 6.747 5.702 13.836 7.356 21.134 5.414-2.123 10.679-4.61 15.757-7.444 4.076-30.354-24.629-72.271-70.457-98.892z"/><path d="m237.496 122.641c-14.338-23.5192-38.837-46.1278-68.966-63.6223-30.129-17.4946-61.86-27.5786-89.4005-28.3879-20.9943-.6059-37.2559 4.4827-45.6876 14.0965 35.0103-5.9318 81.1891 4.0378 125.9491 30.0403 44.759 26.0024 76.308 61.1864 88.485 94.5354 4.174-12.079.543-28.726-10.38-46.662z"/></g></svg>